<svg xmlns="http://www.w3.org/2000/svg" width="22" height="21" viewBox="0 0 22 21" fill="none">
  <path d="M9.636 4.39559C9.99434 2.91845 12.0957 2.91845 12.454 4.39559C12.5078 4.6175 12.6132 4.82357 12.7616 4.99704C12.9101 5.17051 13.0974 5.30648 13.3084 5.39387C13.5193 5.48127 13.7479 5.51762 13.9755 5.49997C14.2032 5.48232 14.4234 5.41117 14.6184 5.2923C15.9164 4.50158 17.4027 5.98713 16.612 7.28593C16.4933 7.4808 16.4223 7.70093 16.4047 7.92842C16.3871 8.15591 16.4234 8.38434 16.5107 8.59515C16.598 8.80597 16.7338 8.99321 16.9071 9.14165C17.0803 9.2901 17.2862 9.39557 17.5079 9.44949C18.985 9.80784 18.985 11.9091 17.5079 12.2675C17.286 12.3213 17.0799 12.4267 16.9064 12.5751C16.733 12.7236 16.597 12.9109 16.5096 13.1219C16.4222 13.3328 16.3859 13.5614 16.4035 13.789C16.4212 14.0167 16.4923 14.2369 16.6112 14.4319C17.4019 15.7298 15.9164 17.2162 14.6176 16.4255C14.4227 16.3068 14.2026 16.2358 13.9751 16.2182C13.7476 16.2006 13.5191 16.2369 13.3083 16.3242C13.0975 16.4115 12.9103 16.5473 12.7618 16.7205C12.6134 16.8938 12.5079 17.0997 12.454 17.3214C12.0957 18.7985 9.99434 18.7985 9.636 17.3214C9.58223 17.0995 9.47682 16.8934 9.32836 16.7199C9.1799 16.5465 8.99258 16.4105 8.78163 16.3231C8.57069 16.2357 8.3421 16.1994 8.11445 16.217C7.88681 16.2347 7.66655 16.3058 7.4716 16.4247C6.17364 17.2154 4.68725 15.7298 5.47797 14.431C5.59666 14.2362 5.6677 14.0161 5.68531 13.7886C5.70292 13.5611 5.6666 13.3326 5.57931 13.1218C5.49202 12.911 5.35622 12.7238 5.18294 12.5753C5.00966 12.4269 4.80381 12.3214 4.5821 12.2675C3.10496 11.9091 3.10496 9.80784 4.5821 9.44949C4.804 9.39572 5.01008 9.29032 5.18355 9.14185C5.35702 8.99339 5.49299 8.80607 5.58038 8.59513C5.66777 8.38419 5.70413 8.15559 5.68648 7.92795C5.66883 7.7003 5.59767 7.48004 5.47881 7.28509C4.68809 5.98713 6.17364 4.50074 7.47244 5.29146C8.31027 5.80291 9.40383 5.35034 9.636 4.39559Z" stroke="#0DE26D" stroke-width="1.68239" stroke-linecap="round" stroke-linejoin="round"/>
  <path d="M13.5685 10.8585C13.5685 11.5278 13.3027 12.1697 12.8294 12.6429C12.3561 13.1162 11.7142 13.3821 11.0449 13.3821C10.3757 13.3821 9.73377 13.1162 9.2605 12.6429C8.78724 12.1697 8.52136 11.5278 8.52136 10.8585C8.52136 10.1892 8.78724 9.54731 9.2605 9.07405C9.73377 8.60078 10.3757 8.33491 11.0449 8.33491C11.7142 8.33491 12.3561 8.60078 12.8294 9.07405C13.3027 9.54731 13.5685 10.1892 13.5685 10.8585Z" stroke="#0DE26D" stroke-width="1.68239" stroke-linecap="round" stroke-linejoin="round"/>
</svg> 