<?xml version="1.0" encoding="UTF-8"?>
<svg width="30" height="30" viewBox="0 0 30 30" fill="none" xmlns="http://www.w3.org/2000/svg">
<path d="M8.68525 3.63144C9.0436 2.1543 11.1449 2.1543 11.5033 3.63144C11.557 3.85334 11.6624 4.05942 11.8109 4.23289C11.9594 4.40636 12.1467 4.54233 12.3576 4.62972C12.5686 4.71712 12.7972 4.75347 13.0248 4.73582C13.2524 4.71817 13.4727 4.64701 13.6677 4.52815C14.9656 3.73743 16.452 5.22298 15.6613 6.52178C15.5426 6.71665 15.4716 6.93678 15.4539 7.16427C15.4363 7.39176 15.4727 7.62019 15.5599 7.831C15.6472 8.04181 15.783 8.22905 15.9563 8.3775C16.1296 8.52595 16.3354 8.63142 16.5572 8.68534C18.0343 9.04369 18.0343 11.145 16.5572 11.5033C16.3353 11.5571 16.1292 11.6625 15.9557 11.811C15.7822 11.9594 15.6463 12.1468 15.5589 12.3577C15.4715 12.5686 15.4351 12.7972 15.4528 13.0249C15.4704 13.2525 15.5416 13.4728 15.6604 13.6677C16.4512 14.9657 14.9656 16.4521 13.6668 15.6614C13.4719 15.5427 13.2518 15.4716 13.0243 15.454C12.7968 15.4364 12.5684 15.4727 12.3576 15.56C12.1468 15.6473 11.9595 15.7831 11.8111 15.9564C11.6626 16.1297 11.5572 16.3355 11.5033 16.5572C11.1449 18.0344 9.0436 18.0344 8.68525 16.5572C8.63149 16.3353 8.52608 16.1293 8.37762 15.9558C8.22916 15.7823 8.04183 15.6463 7.83089 15.559C7.61995 15.4716 7.39136 15.4352 7.16371 15.4529C6.93607 15.4705 6.71581 15.5417 6.52086 15.6605C5.2229 16.4512 3.7365 14.9657 4.52723 13.6669C4.64592 13.472 4.71696 13.2519 4.73457 13.0244C4.75218 12.7969 4.71586 12.5685 4.62857 12.3577C4.54128 12.1469 4.40547 11.9596 4.2322 11.8112C4.05892 11.6627 3.85306 11.5573 3.63136 11.5033C2.15422 11.145 2.15422 9.04369 3.63136 8.68534C3.85326 8.63157 4.05934 8.52617 4.23281 8.3777C4.40628 8.22924 4.54225 8.04192 4.62964 7.83098C4.71703 7.62004 4.75338 7.39144 4.73573 7.1638C4.71808 6.93615 4.64693 6.71589 4.52807 6.52094C3.73735 5.22298 5.2229 3.73659 6.5217 4.52731C7.35953 5.03876 8.45308 4.58619 8.68525 3.63144Z" stroke="#0DE26D" stroke-width="1.682" stroke-linecap="round" stroke-linejoin="round"/>
<path d="M12.6178 10.0943C12.6178 10.7636 12.352 11.4055 11.8787 11.8788C11.4054 12.352 10.7636 12.6179 10.0943 12.6179C9.42496 12.6179 8.78308 12.352 8.30981 11.8788C7.83655 11.4055 7.57067 10.7636 7.57067 10.0943C7.57067 9.42504 7.83655 8.78316 8.30981 8.3099C8.78308 7.83663 9.42496 7.57075 10.0943 7.57075C10.7636 7.57075 11.4054 7.83663 11.8787 8.3099C12.352 8.78316 12.6178 9.42504 12.6178 10.0943Z" stroke="#0DE26D" stroke-width="1.682" stroke-linecap="round" stroke-linejoin="round"/>
</svg> 